<svg xmlns="http://www.w3.org/2000/svg" viewBox="0 0 500 500" width="500" height="500">
  <defs>
    <style>
      @import url('https://fonts.googleapis.com/css2?family=Montserrat:wght@800&amp;display=swap');
    </style>
  </defs>
  
  <rect width="100%" height="100%" fill="#FFD200"/>

  <g transform="translate(60, 130)">
    
    <path d="M20,0 L90,0 L140,50 L140,200 A20,20 0 0,1 120,220 L20,220 A20,20 0 0,1 0,200 L0,20 A20,20 0 0,1 20,0 Z" fill="#003D4C"/>

    <g fill="#33B6A7">
      <path d="M20,65 L85,35 L60,100 L50,75 Z" transform="translate(10, 10) rotate(-10 52 67)"/>
      
      <rect x="25" y="130" width="90" height="16" rx="8" />
      <rect x="25" y="165" width="65" height="16" rx="8" />
    </g>

    <g transform="translate(165, 60)" fill="#003D4C" style="font-family: 'Montserrat', sans-serif; font-weight: 800;">
      <text font-size="68" x="0" y="0">BUH</text>
      <text font-size="68" x="0" y="75">POD</text>
      <text font-size="68" x="0" y="150">RUKOY</text>
    </g>
    
  </g>
</svg>