<svg xmlns="http://www.w3.org/2000/svg" version="1.0" width="640.000000pt" height="640.000000pt" viewBox="0 0 640.000000 640.000000" preserveAspectRatio="xMidYMid meet">

<g transform="translate(0.000000,640.000000) scale(0.100000,-0.100000)" fill="#0e5e6f" stroke="none">
<path d="M992 4573 c-62 -19 -133 -78 -165 -137 l-22 -41 -3 -1089 -2 -1088 23 -52 c28 -59 63 -97 115 -123 35 -17 82 -18 806 -21 845 -3 823 -4 897 57 19 16 48 53 64 82 l30 54 0 885 0 885 -23 51 c-18 40 -72 100 -250 276 -137 136 -245 235 -272 249 l-45 24 -550 2 c-475 2 -557 0 -603 -14z m951 -407 c-1 -16 -43 -155 -93 -310 -51 -154 -98 -301 -106 -326 -26 -79 -19 -79 -163 15 -126 84 -131 88 -118 109 56 86 147 235 147 240 0 3 -40 -25 -88 -63 -110 -85 -121 -91 -174 -91 -65 0 -258 100 -258 134 0 15 40 36 123 66 29 10 126 46 217 80 91 34 215 80 275 102 61 21 133 48 160 58 65 24 81 22 78 -14z m431 -991 c9 -11 16 -41 16 -67 0 -82 36 -78 -627 -78 l-582 0 -21 22 c-29 32 -27 92 5 124 l25 24 584 -2 c572 -3 585 -3 600 -23z m-305 -371 c30 -39 24 -102 -13 -126 -6 -4 -206 -8 -443 -8 -420 0 -434 1 -453 20 -28 28 -27 96 2 121 20 18 46 19 454 19 l433 0 20 -26z" fill="#0e5e6f"/>
<path d="M3098 4555 c-5 -5 -8 -174 -8 -377 l0 -369 203 3 c194 3 204 4 246 28 24 14 58 42 75 63 29 36 31 45 31 116 0 70 -3 81 -28 115 -16 20 -44 45 -63 53 l-34 16 30 19 c47 28 70 74 70 141 0 87 -35 139 -113 172 -42 17 -396 34 -409 20z m316 -146 c29 -14 51 -59 41 -89 -14 -45 -44 -60 -122 -60 l-73 0 0 80 0 80 65 0 c35 0 75 -5 89 -11z m-1 -298 c40 -15 57 -40 57 -81 0 -66 -42 -90 -156 -90 l-54 0 0 90 0 90 64 0 c36 0 76 -4 89 -9z" fill="#0e5e6f"/>
<path d="M3765 4550 c-10 -16 -5 -511 5 -552 18 -66 71 -130 135 -163 53 -27 67 -30 154 -30 80 0 103 4 138 23 66 35 108 77 134 134 23 51 24 64 27 326 l3 272 -85 0 -86 0 0 -245 c0 -266 -7 -308 -55 -339 -29 -19 -113 -21 -149 -4 -14 6 -35 30 -46 53 -18 38 -20 61 -20 286 l0 245 -74 2 c-43 1 -77 -2 -81 -8z" fill="#0e5e6f"/>
<path d="M4490 4184 l0 -374 85 0 85 0 0 150 0 150 130 0 130 0 0 -150 0 -150 85 0 85 0 0 374 0 373 -85 2 -85 2 0 -145 0 -146 -130 0 -129 0 -3 143 -3 142 -82 1 -83 2 0 -374z" fill="#0e5e6f"/>
<path d="M3952 3615 c-181 -51 -270 -185 -260 -390 10 -196 116 -315 307 -346 164 -27 319 49 388 190 26 52 28 65 28 181 0 123 0 126 -34 188 -42 78 -105 135 -180 163 -73 27 -180 33 -249 14z m191 -150 c78 -33 112 -110 105 -243 -4 -71 -8 -88 -34 -125 -38 -54 -84 -77 -156 -77 -137 0 -198 70 -198 230 0 122 40 197 116 220 46 13 129 11 167 -5z" fill="#0e5e6f"/>
<path d="M3092 3253 l3 -368 83 -3 82 -3 0 130 0 129 98 4 c89 3 103 6 148 33 74 47 108 101 112 185 5 81 -9 129 -51 176 -61 70 -90 78 -295 82 l-182 4 2 -369z m342 206 c22 -17 26 -28 26 -73 0 -82 -32 -107 -143 -110 l-52 -1 -3 103 -3 102 74 0 c60 0 79 -4 101 -21z" fill="#0e5e6f"/>
<path d="M4520 3250 l0 -370 118 0 c64 1 149 5 188 9 134 16 240 85 291 189 25 52 28 67 28 172 0 103 -3 121 -26 171 -48 102 -142 169 -266 189 -32 6 -120 10 -195 10 l-138 0 0 -370z m387 183 c21 -16 43 -45 50 -64 16 -47 16 -192 -1 -232 -29 -70 -102 -107 -208 -107 l-58 0 0 221 0 221 90 -4 c82 -4 93 -7 127 -35z" fill="#0e5e6f"/>
<path d="M5074 2679 c-49 -14 -125 -69 -161 -117 -68 -90 -83 -256 -34 -369 53 -121 174 -190 316 -181 85 6 140 30 202 90 67 66 88 123 88 248 0 95 -3 111 -28 162 -34 70 -110 140 -174 162 -50 17 -159 20 -209 5z m184 -153 c15 -8 38 -34 52 -58 21 -35 25 -56 25 -118 0 -64 -5 -83 -27 -121 -64 -108 -217 -107 -278 2 -49 88 -25 254 42 290 59 31 131 33 186 5z" fill="#0e5e6f"/>
<path d="M3090 2351 c0 -182 3 -331 8 -332 4 0 37 -1 75 -2 l67 -2 0 118 0 118 37 -3 c37 -3 40 -6 102 -115 l64 -112 84 -3 c45 -2 83 -2 83 0 0 2 -34 56 -75 121 -73 115 -85 141 -66 141 19 0 73 54 92 93 31 60 24 159 -16 216 -51 74 -84 85 -282 89 l-173 4 0 -331z m283 194 c34 -6 54 -24 63 -59 18 -72 -33 -116 -133 -116 l-63 0 0 94 0 94 53 -4 c28 -3 65 -7 80 -9z" fill="#0e5e6f"/>
<path d="M3670 2452 c0 -169 4 -241 14 -276 33 -109 119 -169 246 -170 91 -1 140 15 193 63 76 68 82 93 85 369 l4 242 -76 0 -76 0 0 -211 c0 -229 -8 -278 -48 -310 -31 -24 -112 -26 -147 -3 -39 26 -45 63 -45 300 l0 224 -75 0 -75 0 0 -228z" fill="#0e5e6f"/>
<path d="M4325 2350 l0 -330 73 0 72 0 0 98 c0 72 4 103 16 120 8 12 19 22 24 22 7 0 67 -81 148 -200 23 -35 24 -35 113 -40 49 -3 89 -2 89 2 0 4 -54 85 -121 179 -66 94 -118 176 -116 182 4 10 112 144 191 237 54 65 57 60 -36 60 l-85 0 -104 -140 c-57 -77 -108 -140 -112 -140 -4 0 -7 63 -5 140 l3 140 -75 0 -75 0 0 -330z" fill="#0e5e6f"/>
<path d="M5476 2668 c4 -7 19 -31 33 -53 13 -22 64 -110 113 -195 l88 -155 0 -125 0 -125 70 3 70 4 0 123 c0 112 2 129 24 167 12 24 37 68 53 98 75 138 136 246 146 258 8 10 -6 12 -73 10 l-82 -3 -40 -75 c-22 -41 -52 -99 -68 -128 -29 -55 -30 -55 -61 3 -9 17 -37 69 -63 118 l-48 87 -84 0 c-65 0 -83 -3 -78 -12z" fill="#0e5e6f"/>
</g>
</svg>